<svg width="1440" height="274" viewBox="0 0 1440 274" fill="none" xmlns="http://www.w3.org/2000/svg">
<path d="M0 273.5V259C20.8333 246.833 70 219.4 100 207C137.5 191.5 208 160 278.5 146C309 137.667 386.9 119.6 454.5 114C539 107 558 101.5 681.5 100C805 98.5 866.5 100 963 94C1059.5 88 1126.5 81 1179 71.5C1231.5 62 1276 62.5 1377 26.5C1424.57 11.8083 1438.39 3.94851 1440 0.981029V0C1440.21 0.230077 1440.23 0.555176 1440 0.981029V14.5V216L0 273.5Z" fill="white"/>
<path d="M270.5 161C181.5 183 52.6667 242.5 0 273.5H1440V14C1378.5 45.5 1358.5 49 1298.5 63C1227.5 83 1118 96 1062 100C1015.67 106 891 118 763 118C639.4 111.6 530.167 120.667 491 126C457.667 127.167 366.5 140 270.5 161Z" fill="#167C42"/>
</svg>
